<svg width="22" height="14" viewBox="0 0 22 14" fill="none" xmlns="http://www.w3.org/2000/svg">
<path d="M1.99959 0.000100007C1.86708 -0.00177404 1.73552 0.0227073 1.61255 0.072121C1.48958 0.121535 1.37766 0.194895 1.28329 0.28794C1.18892 0.380984 1.11399 0.491857 1.06284 0.614114C1.01169 0.736371 0.985352 0.867575 0.985352 1.0001C0.985352 1.13263 1.01169 1.26383 1.06284 1.38609C1.11399 1.50834 1.18892 1.61922 1.28329 1.71226C1.37766 1.8053 1.48958 1.87867 1.61255 1.92808C1.73552 1.97749 1.86708 2.00197 1.99959 2.0001H19.9996C20.1321 2.00197 20.2637 1.97749 20.3866 1.92808C20.5096 1.87867 20.6215 1.8053 20.7159 1.71226C20.8103 1.61922 20.8852 1.50834 20.9363 1.38609C20.9875 1.26383 21.0138 1.13263 21.0138 1.0001C21.0138 0.867575 20.9875 0.736371 20.9363 0.614114C20.8852 0.491857 20.8103 0.380984 20.7159 0.28794C20.6215 0.194895 20.5096 0.121535 20.3866 0.072121C20.2637 0.0227073 20.1321 -0.00177404 19.9996 0.000100007H1.99959ZM1.99959 6.0001C1.86708 5.99823 1.73552 6.02271 1.61255 6.07212C1.48958 6.12153 1.37766 6.1949 1.28329 6.28794C1.18892 6.38098 1.11399 6.49186 1.06284 6.61411C1.01169 6.73637 0.985352 6.86758 0.985352 7.0001C0.985352 7.13263 1.01169 7.26383 1.06284 7.38609C1.11399 7.50834 1.18892 7.61922 1.28329 7.71226C1.37766 7.8053 1.48958 7.87867 1.61255 7.92808C1.73552 7.97749 1.86708 8.00197 1.99959 8.0001H19.9996C20.1321 8.00197 20.2637 7.97749 20.3866 7.92808C20.5096 7.87867 20.6215 7.8053 20.7159 7.71226C20.8103 7.61922 20.8852 7.50834 20.9363 7.38609C20.9875 7.26383 21.0138 7.13263 21.0138 7.0001C21.0138 6.86758 20.9875 6.73637 20.9363 6.61411C20.8852 6.49186 20.8103 6.38098 20.7159 6.28794C20.6215 6.1949 20.5096 6.12153 20.3866 6.07212C20.2637 6.02271 20.1321 5.99823 19.9996 6.0001H1.99959ZM1.99959 12.0001C1.86708 11.9982 1.73552 12.0227 1.61255 12.0721C1.48958 12.1215 1.37766 12.1949 1.28329 12.2879C1.18892 12.381 1.11399 12.4919 1.06284 12.6141C1.01169 12.7364 0.985352 12.8676 0.985352 13.0001C0.985352 13.1326 1.01169 13.2638 1.06284 13.3861C1.11399 13.5083 1.18892 13.6192 1.28329 13.7123C1.37766 13.8053 1.48958 13.8787 1.61255 13.9281C1.73552 13.9775 1.86708 14.002 1.99959 14.0001H19.9996C20.1321 14.002 20.2637 13.9775 20.3866 13.9281C20.5096 13.8787 20.6215 13.8053 20.7159 13.7123C20.8103 13.6192 20.8852 13.5083 20.9363 13.3861C20.9875 13.2638 21.0138 13.1326 21.0138 13.0001C21.0138 12.8676 20.9875 12.7364 20.9363 12.6141C20.8852 12.4919 20.8103 12.381 20.7159 12.2879C20.6215 12.1949 20.5096 12.1215 20.3866 12.0721C20.2637 12.0227 20.1321 11.9982 19.9996 12.0001H1.99959Z" fill="white"/>
</svg>
